<svg xmlns="http://www.w3.org/2000/svg" version="1.1" xmlns:xlink="http://www.w3.org/1999/xlink" xmlns:svgjs="http://svgjs.dev/svgjs" width="1000" height="219" viewBox="0 0 1000 219"><g transform="matrix(1,0,0,1,-0.6060606060606233,-0.6000122851710472)"><svg viewBox="0 0 396 87" data-background-color="#9d9b9b" preserveAspectRatio="xMidYMid meet" height="219" width="1000" xmlns="http://www.w3.org/2000/svg" xmlns:xlink="http://www.w3.org/1999/xlink"><defs></defs><g id="tight-bounds" transform="matrix(1,0,0,1,0.2400000000000091,0.2383610447939759)"><svg viewBox="0 0 395.52 86.52327791041208" height="86.52327791041208" width="395.52"><g><svg viewBox="0 0 520.5028376721116 113.86430945859178" height="86.52327791041208" width="395.52"><g transform="matrix(1,0,0,1,0,15.736673738488449)"><svg viewBox="0 0 395.52 82.39096198161488" height="82.39096198161488" width="395.52"><g><svg viewBox="0 0 395.52 82.39096198161488" height="82.39096198161488" width="395.52"><g><svg viewBox="0 0 395.52 47.0972407763595" height="47.0972407763595" width="395.52"><g transform="matrix(1,0,0,1,0,0)"><svg width="395.52" viewBox="3.0999999046325684 -33.95000076293945 285.92999267578125 34.04999923706055" height="47.0972407763595" data-palette-color="#ffffff"><path d="M3.1 0L3.1-33.85 11.35-33.85 11.35 0 3.1 0ZM29.5-33.85Q28.8-30.3 27.88-27.75 26.95-25.2 25.85-23.33 24.75-21.45 23.5-20.15 22.25-18.85 20.9-17.8L20.9-17.8 32.6 0 23.4 0 11.9-18.55 11.9-19.15Q14.1-20.2 15.63-21.63 17.15-23.05 18.2-24.88 19.25-26.7 19.98-28.93 20.7-31.15 21.3-33.85L21.3-33.85 29.5-33.85ZM32.85 0L45.7-33.85 53.05-33.85 65.45 0 57.1 0 54.6-8.15 43.65-8.15 41.05 0 32.85 0ZM45.55-14.25L52.75-14.25Q52.25-15.7 51.72-17.28 51.2-18.85 50.72-20.35 50.25-21.85 49.85-23.18 49.45-24.5 49.15-25.4L49.15-25.4Q48.85-24.45 48.45-23.13 48.05-21.8 47.57-20.3 47.1-18.8 46.57-17.25 46.05-15.7 45.55-14.25L45.55-14.25ZM68.45 0L68.45-33.85Q68.9-33.85 70.25-33.88 71.6-33.9 73.25-33.9 74.9-33.9 76.45-33.93 78-33.95 78.85-33.95L78.85-33.95Q85.25-33.95 88.45-31.5 91.65-29.05 91.65-24.25L91.65-24.25Q91.65-21.05 90.1-18.98 88.55-16.9 85.9-15.75L85.9-15.75Q87.4-14.9 88.55-13.5 89.7-12.1 90.75-10.13 91.8-8.15 92.87-5.6 93.95-3.05 95.25 0L95.25 0 86.4 0Q84.8-3.5 83.7-6.18 82.6-8.85 81.65-10.68 80.7-12.5 79.77-13.43 78.85-14.35 77.55-14.35L77.55-14.35 76.7-14.35 76.7 0 68.45 0ZM76.7-28.55L76.7-19.5 78.8-19.5Q80.55-19.5 81.77-20.58 83-21.65 83-23.95L83-23.95Q83-24.9 82.77-25.73 82.55-26.55 82.05-27.18 81.55-27.8 80.67-28.18 79.8-28.55 78.55-28.55L78.55-28.55 76.7-28.55ZM98.39 0L98.39-33.85 106.64-33.85 106.64-6.05 118.54-6.05 118.54 0 98.39 0ZM119.64 0L132.49-33.85 139.84-33.85 152.24 0 143.89 0 141.39-8.15 130.44-8.15 127.84 0 119.64 0ZM132.34-14.25L139.54-14.25Q139.04-15.7 138.52-17.28 137.99-18.85 137.52-20.35 137.04-21.85 136.64-23.18 136.24-24.5 135.94-25.4L135.94-25.4Q135.64-24.45 135.24-23.13 134.84-21.8 134.37-20.3 133.89-18.8 133.37-17.25 132.84-15.7 132.34-14.25L132.34-14.25ZM164.84 0L177.69-33.85 185.04-33.85 197.44 0 189.09 0 186.59-8.15 175.64-8.15 173.04 0 164.84 0ZM177.54-14.25L184.74-14.25Q184.24-15.7 183.71-17.28 183.19-18.85 182.71-20.35 182.24-21.85 181.84-23.18 181.44-24.5 181.14-25.4L181.14-25.4Q180.84-24.45 180.44-23.13 180.04-21.8 179.56-20.3 179.09-18.8 178.56-17.25 178.04-15.7 177.54-14.25L177.54-14.25ZM200.43 0L200.43-33.85Q200.88-33.85 202.26-33.88 203.63-33.9 205.28-33.9 206.93-33.9 208.48-33.93 210.03-33.95 210.83-33.95L210.83-33.95Q217.18-33.95 220.41-31.58 223.63-29.2 223.63-25.15L223.63-25.15Q223.63-22.6 222.01-20.65 220.38-18.7 217.23-17.65L217.23-17.65Q220.98-16.55 222.81-14.45 224.63-12.35 224.63-9.45L224.63-9.45Q224.63 0.05 210.28 0.05L210.28 0.05Q209.58 0.05 208.16 0.05 206.73 0.05 205.18 0.03 203.63 0 202.31 0 200.98 0 200.43 0L200.43 0ZM208.68-14.4L208.68-5.4 211.13-5.4Q212.13-5.4 213.01-5.6 213.88-5.8 214.53-6.28 215.18-6.75 215.56-7.58 215.93-8.4 215.93-9.65L215.93-9.65Q215.93-10.6 215.68-11.48 215.43-12.35 214.83-13.03 214.23-13.7 213.26-14.1 212.28-14.5 210.88-14.5L210.88-14.5Q210.18-14.5 209.61-14.48 209.03-14.45 208.68-14.4L208.68-14.4ZM208.68-28.45L208.68-19.65 210.98-19.65Q212.53-19.65 213.76-20.6 214.98-21.55 214.98-24.05L214.98-24.05Q214.98-26.15 214.01-27.33 213.03-28.5 210.78-28.5L210.78-28.5Q210.13-28.5 209.56-28.5 208.98-28.5 208.68-28.45L208.68-28.45ZM225.98 0L238.83-33.85 246.18-33.85 258.58 0 250.23 0 247.73-8.15 236.78-8.15 234.18 0 225.98 0ZM238.68-14.25L245.88-14.25Q245.38-15.7 244.86-17.28 244.33-18.85 243.86-20.35 243.38-21.85 242.98-23.18 242.58-24.5 242.28-25.4L242.28-25.4Q241.98-24.45 241.58-23.13 241.18-21.8 240.71-20.3 240.23-18.8 239.71-17.25 239.18-15.7 238.68-14.25L238.68-14.25ZM261.58 0L261.58-33.85Q261.93-33.85 263.2-33.88 264.48-33.9 266.13-33.9 267.78-33.9 269.55-33.93 271.33-33.95 272.73-33.95L272.73-33.95Q276.98-33.95 280.05-32.68 283.13-31.4 285.13-29.1 287.13-26.8 288.08-23.63 289.03-20.45 289.03-16.65L289.03-16.65Q289.03-12.75 288.05-9.65 287.08-6.55 285.05-4.38 283.03-2.2 279.93-1.05 276.83 0.1 272.58 0.1L272.58 0.1Q271.13 0.1 269.93 0.08 268.73 0.05 267.48 0.05 266.23 0.05 264.83 0.03 263.43 0 261.58 0L261.58 0ZM272.38-28.15Q271.53-28.15 271.08-28.13 270.63-28.1 269.83-28.1L269.83-28.1 269.83-5.75Q270.48-5.7 270.98-5.7 271.48-5.7 272.38-5.7L272.38-5.7Q274.58-5.7 276.05-6.45 277.53-7.2 278.43-8.6 279.33-10 279.73-12.03 280.13-14.05 280.13-16.55L280.13-16.55Q280.13-28.15 272.38-28.15L272.38-28.15Z" opacity="1" transform="matrix(1,0,0,1,0,0)" fill="#ffffff" class="undefined-text-0" data-fill-palette-color="primary" id="text-0"></path></svg></g></svg></g><g transform="matrix(1,0,0,1,163.310208,58.215768989879344)"><svg viewBox="0 0 232.209792 24.175192991735535" height="24.175192991735535" width="232.209792"><g transform="matrix(1,0,0,1,0,0)"><svg width="232.209792" viewBox="4 -35.349998474121094 435.55999755859375 45.349998474121094" height="24.175192991735535" data-palette-color="#a5e2f9"><path d="M20.2-18L20.2-15.15 7.1-15.15 7.1 0 4 0 4-33.7 21.95-33.7 21.95-30.85 7.1-30.85 7.1-18 20.2-18ZM31.05-14.15L31.05 0 28 0 28-25.35 31.05-25.35 31.05-21.05Q33.15-25.65 38.15-25.65L38.15-25.65Q38.5-25.65 39.4-25.55L39.4-25.55 39.4-22.45Q38.4-22.75 37.4-22.75L37.4-22.75Q34.7-22.75 32.87-20.08 31.05-17.4 31.05-14.15L31.05-14.15ZM65.7-12.55L65.7-12.55Q65.7-6.9 62.52-3.23 59.35 0.45 53.8 0.45L53.8 0.45Q48.45 0.45 45.3-3.25 42.15-6.95 42.15-12.55L42.15-12.55Q42.15-18.1 45.4-21.9 48.65-25.7 53.8-25.7L53.8-25.7Q59.45-25.7 62.57-21.98 65.7-18.25 65.7-12.55ZM45.35-12.55L45.35-12.55Q45.35-8.4 47.67-5.43 50-2.45 53.8-2.45L53.8-2.45Q57.95-2.45 60.22-5.38 62.5-8.3 62.5-12.55L62.5-12.55Q62.5-16.95 60.35-19.88 58.2-22.8 53.8-22.8L53.8-22.8Q49.85-22.8 47.6-19.8 45.35-16.8 45.35-12.55ZM90.89-17.7L90.89 0 87.84 0 87.84-16.75Q87.84-19.7 86.34-21.25 84.84-22.8 82.39-22.8L82.39-22.8Q79.29-22.8 77.04-20.43 74.79-18.05 74.79-14L74.79-14 74.79 0 71.74 0 71.74-25.35 74.79-25.35 74.79-21Q77.14-25.75 82.84-25.75L82.84-25.75Q86.49-25.75 88.69-23.5 90.89-21.25 90.89-17.7L90.89-17.7ZM110.34-3.8L110.34-0.7Q108.89 0.25 106.99 0.25L106.99 0.25Q99.79 0.25 99.79-7.15L99.79-7.15 99.79-22.75 95.64-22.75 95.64-25.35 99.79-25.35 99.79-31.7 102.89-31.7 102.89-25.35 110.14-25.35 110.14-22.75 102.89-22.75 102.89-7Q102.89-2.65 106.94-2.65L106.94-2.65Q108.94-2.65 110.34-3.8L110.34-3.8ZM126.84-14.9L126.84-12.15 115.59-12.15 115.59-14.9 126.84-14.9ZM151.79-4.35L151.79-1.25Q148.79 0.25 144.79 0.25L144.79 0.25Q139.14 0.25 135.61-3.28 132.09-6.8 132.09-12.55L132.09-12.55Q132.09-18.65 135.19-22.15 138.29-25.65 143.24-25.65L143.24-25.65Q147.89-25.65 150.64-22.6 153.39-19.55 153.39-14L153.39-14Q153.39-12.3 153.19-11.3L153.19-11.3 135.29-11.3Q135.64-7.1 138.19-4.88 140.74-2.65 144.94-2.65L144.94-2.65Q149.24-2.65 151.79-4.35L151.79-4.35ZM143.14-22.8L143.14-22.8Q139.94-22.8 137.79-20.55 135.64-18.3 135.29-14.1L135.29-14.1 150.24-14.1 150.24-15.25Q150.24-18.7 148.31-20.75 146.39-22.8 143.14-22.8ZM178.73-17.7L178.73 0 175.68 0 175.68-16.75Q175.68-19.7 174.18-21.25 172.68-22.8 170.23-22.8L170.23-22.8Q167.13-22.8 164.88-20.43 162.63-18.05 162.63-14L162.63-14 162.63 0 159.58 0 159.58-25.35 162.63-25.35 162.63-21Q164.98-25.75 170.68-25.75L170.68-25.75Q174.33-25.75 176.53-23.5 178.73-21.25 178.73-17.7L178.73-17.7ZM187.68-12.35L187.68-12.35Q187.68-8 189.81-5.25 191.93-2.5 195.18-2.5 198.43-2.5 200.78-4.88 203.13-7.25 203.13-12.8L203.13-12.8Q203.13-15.6 202.36-17.68 201.58-19.75 200.36-20.83 199.13-21.9 197.91-22.38 196.68-22.85 195.48-22.85L195.48-22.85Q192.08-22.85 189.88-20.13 187.68-17.4 187.68-12.35ZM206.18-35.35L206.18 0 203.13 0 203.13-3.7Q200.48 0.4 195.28 0.4L195.28 0.4Q190.18 0.4 187.33-3.33 184.48-7.05 184.48-12.4L184.48-12.4Q184.48-18.3 187.53-22.03 190.58-25.75 195.38-25.75L195.38-25.75Q200.33-25.75 203.13-21.55L203.13-21.55 203.13-35.35 206.18-35.35ZM235.93 0L235.93 0 226.08 0 226.08-33.7 235.68-33.7Q243.08-33.7 247.83-29.1 252.58-24.5 252.58-17.05L252.58-17.05Q252.58-12.5 250.83-8.72 249.08-4.95 245.2-2.48 241.33 0 235.93 0ZM235.68-30.85L235.68-30.85 229.18-30.85 229.18-2.85 235.93-2.85Q239.38-2.85 242.03-4.05 244.68-5.25 246.23-7.3 247.78-9.35 248.55-11.8 249.33-14.25 249.33-17.05L249.33-17.05Q249.33-22.8 245.5-26.83 241.68-30.85 235.68-30.85ZM276.77-4.35L276.77-1.25Q273.77 0.25 269.77 0.25L269.77 0.25Q264.12 0.25 260.6-3.28 257.07-6.8 257.07-12.55L257.07-12.55Q257.07-18.65 260.17-22.15 263.27-25.65 268.22-25.65L268.22-25.65Q272.87-25.65 275.62-22.6 278.37-19.55 278.37-14L278.37-14Q278.37-12.3 278.17-11.3L278.17-11.3 260.27-11.3Q260.62-7.1 263.17-4.88 265.72-2.65 269.92-2.65L269.92-2.65Q274.22-2.65 276.77-4.35L276.77-4.35ZM268.12-22.8L268.12-22.8Q264.92-22.8 262.77-20.55 260.62-18.3 260.27-14.1L260.27-14.1 275.22-14.1 275.22-15.25Q275.22-18.7 273.3-20.75 271.37-22.8 268.12-22.8ZM304.12-25.35L295.12 0 291.02 0 282.27-25.35 285.47-25.35 289.02-14.7 293.07-2.45Q293.57-4.3 297.22-14.7L297.22-14.7 300.92-25.35 304.12-25.35ZM327.57-4.35L327.57-1.25Q324.57 0.25 320.57 0.25L320.57 0.25Q314.92 0.25 311.39-3.28 307.87-6.8 307.87-12.55L307.87-12.55Q307.87-18.65 310.97-22.15 314.07-25.65 319.02-25.65L319.02-25.65Q323.67-25.65 326.42-22.6 329.17-19.55 329.17-14L329.17-14Q329.17-12.3 328.97-11.3L328.97-11.3 311.07-11.3Q311.42-7.1 313.97-4.88 316.52-2.65 320.72-2.65L320.72-2.65Q325.02-2.65 327.57-4.35L327.57-4.35ZM318.92-22.8L318.92-22.8Q315.72-22.8 313.57-20.55 311.42-18.3 311.07-14.1L311.07-14.1 326.02-14.1 326.02-15.25Q326.02-18.7 324.09-20.75 322.17-22.8 318.92-22.8ZM338.62-35.35L338.62 0 335.57 0 335.57-35.35 338.62-35.35ZM368.41-12.55L368.41-12.55Q368.41-6.9 365.24-3.23 362.06 0.45 356.51 0.45L356.51 0.45Q351.16 0.45 348.01-3.25 344.86-6.95 344.86-12.55L344.86-12.55Q344.86-18.1 348.11-21.9 351.36-25.7 356.51-25.7L356.51-25.7Q362.16-25.7 365.29-21.98 368.41-18.25 368.41-12.55ZM348.06-12.55L348.06-12.55Q348.06-8.4 350.39-5.43 352.71-2.45 356.51-2.45L356.51-2.45Q360.66-2.45 362.94-5.38 365.21-8.3 365.21-12.55L365.21-12.55Q365.21-16.95 363.06-19.88 360.91-22.8 356.51-22.8L356.51-22.8Q352.56-22.8 350.31-19.8 348.06-16.8 348.06-12.55ZM377.51-3.8L377.51 10 374.46 10 374.46-25.35 377.51-25.35 377.51-21.65Q380.16-25.75 385.36-25.75L385.36-25.75Q390.46-25.75 393.31-22.03 396.16-18.3 396.16-12.95L396.16-12.95Q396.16-7.05 393.11-3.33 390.06 0.4 385.26 0.4L385.26 0.4Q380.31 0.4 377.51-3.8L377.51-3.8ZM377.51-12.55L377.51-12.55Q377.51-9.75 378.29-7.68 379.06-5.6 380.29-4.53 381.51-3.45 382.74-2.98 383.96-2.5 385.16-2.5L385.16-2.5Q388.56-2.5 390.76-5.23 392.96-7.95 392.96-13L392.96-13Q392.96-17.35 390.84-20.1 388.71-22.85 385.46-22.85 382.21-22.85 379.86-20.48 377.51-18.1 377.51-12.55ZM420.36-4.35L420.36-1.25Q417.36 0.25 413.36 0.25L413.36 0.25Q407.71 0.25 404.18-3.28 400.66-6.8 400.66-12.55L400.66-12.55Q400.66-18.65 403.76-22.15 406.86-25.65 411.81-25.65L411.81-25.65Q416.46-25.65 419.21-22.6 421.96-19.55 421.96-14L421.96-14Q421.96-12.3 421.76-11.3L421.76-11.3 403.86-11.3Q404.21-7.1 406.76-4.88 409.31-2.65 413.51-2.65L413.51-2.65Q417.81-2.65 420.36-4.35L420.36-4.35ZM411.71-22.8L411.71-22.8Q408.51-22.8 406.36-20.55 404.21-18.3 403.86-14.1L403.86-14.1 418.81-14.1 418.81-15.25Q418.81-18.7 416.88-20.75 414.96-22.8 411.71-22.8ZM431.21-14.15L431.21 0 428.16 0 428.16-25.35 431.21-25.35 431.21-21.05Q433.31-25.65 438.31-25.65L438.31-25.65Q438.66-25.65 439.56-25.55L439.56-25.55 439.56-22.45Q438.56-22.75 437.56-22.75L437.56-22.75Q434.86-22.75 433.03-20.08 431.21-17.4 431.21-14.15L431.21-14.15Z" opacity="1" transform="matrix(1,0,0,1,0,0)" fill="#a5e2f9" class="undefined-text-1" data-fill-palette-color="secondary" id="text-1"></path></svg></g></svg></g></svg></g></svg></g><g transform="matrix(1,0,0,1,406.6385282135198,0)"><svg viewBox="0 0 113.86430945859178 113.86430945859178" height="113.86430945859178" width="113.86430945859178"><g data-palette-color="#ade4f9"><rect width="31.122911252015086" height="113.86430945859178" fill="#ade4f9" stroke="transparent" data-fill-palette-color="accent" x="0" fill-opacity="1"></rect><rect width="31.122911252015086" height="113.86430945859178" fill="#ade4f9" stroke="transparent" data-fill-palette-color="accent" x="37.95476981953059" fill-opacity="0.75"></rect><rect width="31.122911252015086" height="113.86430945859178" fill="#ade4f9" stroke="transparent" data-fill-palette-color="accent" x="75.90953963906118" fill-opacity="0.5"></rect></g></svg></g></svg></g></svg><rect width="395.52" height="86.52327791041208" fill="none" stroke="none" visibility="hidden"></rect></g></svg></g></svg>